<svg id="Pattern" xmlns="http://www.w3.org/2000/svg" xmlns:xlink="http://www.w3.org/1999/xlink" viewBox="0 0 2589 1524"><defs><style>.cls-1{fill:none;}.cls-2{fill:#fff;}.cls-3{fill:#b0a6af;}.cls-4{fill:url(#Nueva_muestra_de_motivo_2);}</style><pattern id="Nueva_muestra_de_motivo_2" data-name="Nueva muestra de motivo 2" x="848" y="1575" width="300" height="300" patternUnits="userSpaceOnUse" viewBox="0 0 300 300"><rect class="cls-1" width="300" height="300"/><path class="cls-2" d="M194.85,1.11A23.12,23.12,0,0,1,192.46,0h13.35a9.56,9.56,0,0,0,1.67,2.11A10.47,10.47,0,0,0,221,2.76a1.24,1.24,0,0,0,.56-1.25c7.68,7,15.2,14.11,23.61,20.16-8.57,12.22-19.46,23.1-35,24.76-1.89-5.09-1.66-11-3.29-16.21,5.6-1.25,3.56-7.57.63-10.59a8.1,8.1,0,0,0-6.26-2.8c-2.07.12-3.47,1.66-4.37,3.43-2.28-2.21-1.29-5.15,1.55-7.87s5.16-7.6.77-10a6.19,6.19,0,0,0-2.27-.58,10.69,10.69,0,0,1-1.89-.6Zm21.62,21.66c.32,4.87,5.66,8.76,10.27,8.42,5.41-.41,7.55-6.69,6.63-11.23a1.24,1.24,0,0,0-.21-.91c-2.37-3.74-6.33-6.46-10.88-4.93A8.44,8.44,0,0,0,216.47,22.77Z"/><path class="cls-2" d="M219,.46a1.51,1.51,0,0,1,1-.28l-.2-.18H209.58c.11.09.21.19.33.28A7.5,7.5,0,0,0,219,.46Z"/><path class="cls-2" d="M226.24,28.23c3.74-.63,4.85-4.5,4.17-7.8l0-.19c-1.52-2.33-4.31-4.44-7.23-3.27a5.52,5.52,0,0,0-3.75,4.86C219.4,25,223,28.78,226.24,28.23Z"/><path class="cls-2" d="M206.13,51.63c-.23,3.17,2.65,6.4,5.57,4.68a1.43,1.43,0,0,1-.19-.49,11.63,11.63,0,0,0-2.35-5.47C207.89,48.94,206.26,49.82,206.13,51.63Z"/><path class="cls-2" d="M239,45.53c4.11-2.43,9.4-5.54,12.14-9.65,1.9-2.86,2.8-13.75-3.5-12.62-8.75,12.52-20,23.71-35.62,26a14.34,14.34,0,0,1,2.06,4.6C222.71,52,231.4,50.06,239,45.53Z"/><path class="cls-2" d="M204.17,25a14.57,14.57,0,0,1,1.55,2.42,1.52,1.52,0,0,1,.41-.14c1.32-.26,1.56-.91,1.27-2.12a8.22,8.22,0,0,0-2.4-3.8c-.86-.82-2.28-1.8-3.49-1.59a3.07,3.07,0,0,0-2.15,2A12.91,12.91,0,0,1,204.17,25Z"/><path class="cls-2" d="M200.83,26.24c1.07,7.44,1.5,15.05,3.39,22.33a5.2,5.2,0,0,1,2.82-2c-1.82-6-1.08-13-4.24-18.33A6.66,6.66,0,0,0,200.83,26.24Z"/><path class="cls-2" d="M198.19,8.13c1.32-2.5,0-3.13-1.38-3.33A21.47,21.47,0,0,1,197.63,9,7,7,0,0,0,198.19,8.13Z"/><path class="cls-2" d="M292.93,19.91A104,104,0,0,1,300,34.74V0H274.56C281.87,5.83,288.23,11.61,292.93,19.91Z"/><path class="cls-2" d="M299,132.09a32.45,32.45,0,0,1-5.91-9.65,63.53,63.53,0,0,1-4.59,4.83v0c1.27,6.31,5.35,10.51,9.58,14.91a34.85,34.85,0,0,0,1.95-4.28v-5.41A1.48,1.48,0,0,1,299,132.09Z"/><path class="cls-2" d="M300,215.36V183.19C288.43,188.61,293.64,203.88,300,215.36Z"/><path class="cls-2" d="M299.73,115.12c-.39-.74-.79-1.52-1.18-2.32a23.41,23.41,0,0,1-3.39,6.89,33,33,0,0,0,4.84,9V115.46A1.16,1.16,0,0,1,299.73,115.12Z"/><path class="cls-2" d="M273.77,299.37l.79.63H300v-4C290.94,294.08,281.51,294,273.77,299.37Z"/><path class="cls-2" d="M278.08,27.32c-1.14,3.82,2.84,18.37,6.75,13.4C287.48,37.34,282.07,24.89,278.08,27.32Z"/><path class="cls-2" d="M297.5,36.81a60.72,60.72,0,0,1,2.5,8.34V56.79a8.46,8.46,0,0,1-5.91,5.66q-1.35.21-2.7.33a1.51,1.51,0,0,0-.66.2,14.21,14.21,0,0,1-4.65-.64c-11.42-3.65-17.32-19.21-20-29.58-2.38-9.13-4.8-25.83,5.07-31.68,6.58,5.18,12.75,10.05,17.31,17.19A94.74,94.74,0,0,1,297.5,36.81Zm-21.11-12a1.25,1.25,0,0,0-.73.61l-.33.33a1.41,1.41,0,0,0-.31,1.52c-1,4.2.5,9.17,2.26,12.85,2,4.16,6.49,6.79,9.91,2.44C291.74,36.73,283.46,19.65,276.39,24.78Z"/><path class="cls-2" d="M300,109V94.59c-.67,1-1.33,2-2,3.08C297,101.19,298.35,105.31,300,109Z"/><path class="cls-2" d="M282,111.74v0c0,5.39-.35,10.64,1.51,15.71,5.35-4.92,11.89-10.67,12.55-18.11a1.46,1.46,0,0,1,.33-.92,29.12,29.12,0,0,1-1.87-5.91C291.36,107.25,288,111.3,282,111.74Z"/><path class="cls-2" d="M295.19,96.65a10.9,10.9,0,0,1,1-2.37c-7.14,1.81-15.29,6.93-17.39,14C287.23,110.47,291.28,103.23,295.19,96.65Z"/><path class="cls-2" d="M122.13,103.28c6.91.3,13.84.2,18,6.62,2.13,3.31,1.11,8.49-3.4,8.92-4.69.45-7.7-2.6-9.31-6.44-2.39,3.79-3.62,8.43-.54,12.34a17.38,17.38,0,0,0,11.22,6.12c9.77,1.39,18.5-3.35,23.09-12.07,4.07-7.75,5.82-17.81,2-26-4.59-9.79-18.5-15.45-23.88-5,6.79-1.38,15.1,6.25,7.56,11.15-14.35,9.33-21.55-23.9-33.35-13.29-3.06,2.75-4.66,7.6-3.08,11.57C112.38,102.24,117.21,103.07,122.13,103.28Z"/><path class="cls-2" d="M257.24,131.3a1.85,1.85,0,0,1-.32-.3c-1.76,1.65-3.16,4.55-5.42,4.5a2.82,2.82,0,0,1-2.19-.87c-1.47-1.5-1.1-1.25-2.63,0-2,1.67-3.56,1.41-5.93.51-1.83-.7-3.53-2-5.56-1.4-1.79.57-3.53,1.37-5.34,1.87-2,.56-5.68-1-6.85.43-3.16,3.9-7.58,1.59-10.27-1.48-4.17,3.12-9.12,6.12-11.49.86a7.22,7.22,0,0,1-4.11,1.53c-1.69,0-2.94-1.64-4.53-2a1.41,1.41,0,0,1-.64-.35c-1.05-.38-2.39-.49-3.47-.93a18.12,18.12,0,0,1-4.59,1.78h-.13c-11.5,13.63,22.22,12,28.4,11.79,9.31-.35,18.62-.95,27.86-2.14,4.76-.6,10.51-.71,14.82-3.08C259.5,139.47,263.24,135.35,257.24,131.3Z"/><path class="cls-2" d="M186.76,117.7a1.52,1.52,0,0,0-.66-.16,58.59,58.59,0,0,1,5.73-20.4,16.73,16.73,0,0,1,3.11,2.42c1.38,1.36,3.5-.76,2.12-2.12a19.7,19.7,0,0,0-3.78-2.93,39.12,39.12,0,0,1,8.32-10c2.66.39,5.35.52,8,.94,1.89.29,2.71-2.6.8-2.9s-3.58-.43-5.37-.61a35.56,35.56,0,0,1,13.16-5.19,25.16,25.16,0,0,1,5.33-.41l0,.16c0,1.85-.47,3.65-.5,5.5s3,1.93,3,0,.45-3.59.49-5.41a34.45,34.45,0,0,1,18.09,8.64,28.78,28.78,0,0,1,3.4,3.7,1.63,1.63,0,0,0-.27.31c-1.08,1.57-2.43,2.93-3.5,4.5s1.5,3.1,2.58,1.52c.91-1.32,2-2.5,3-3.77,4.42,7.22,5.5,16.08,4.3,24.61a2,2,0,0,0,0,.34c-9.5,5.68-21.92,6.56-32.66,6.81C210,123.52,197.11,122.83,186.76,117.7Zm51-14.4c1.63,1.06,3.38,1.93,5,3s3.13-1.54,1.52-2.6-3.38-1.93-5-3S236.13,102.24,237.74,103.3ZM231,91a16.83,16.83,0,0,0,4.9-1c1.82-.61,1-3.51-.8-2.9a13.9,13.9,0,0,1-4.1,1C229.07,88,229.06,91,231,91Zm-5.45,8.77A12.35,12.35,0,0,1,226,104c0,1,3,1,3,0a16.9,16.9,0,0,0-.55-5.15A1.52,1.52,0,0,0,225.55,99.77Zm-10.84-12a16,16,0,0,1,2.34,4.64,1.51,1.51,0,0,0,2.9-.8,18.15,18.15,0,0,0-2.66-5.36C216.23,84.64,213.63,86.14,214.71,87.76Zm-1.92,18.5c.65-1.17,2.3-2.18,3.47-3,1.59-1.08.09-3.68-1.52-2.6s-3.58,2.31-4.53,4S211.86,108,212.79,106.26ZM203,92a11.89,11.89,0,0,0,1.71,6.26c1,1.63,3.62.12,2.58-1.52A9,9,0,0,1,206,92C206,90.07,203,90.06,203,92Zm-6.45,13.9a40.88,40.88,0,0,0,2.66,4.86c.89,1.71,3.48.2,2.58-1.52a33.8,33.8,0,0,1-2.34-4.14C198.8,103.29,195.9,104.07,196.55,105.9Z"/><path class="cls-2" d="M143.7,160.07c1.89-.09,3.84-.19,5.82-.24,3.12-1.86,8-3.28,9.27-6.85a27.17,27.17,0,0,0-7.63,2.17,1.53,1.53,0,0,1-2.21-1.36c-.17-1.79-.19-3.59-.41-5.36-.74,1.84-1.41,3.72-2.15,5.57a1.52,1.52,0,0,1-2.53.58c-1.85-1.66-3.34-4-5.63-4.9a28.08,28.08,0,0,0,5.29,10.1A3.31,3.31,0,0,1,143.7,160.07Z"/><path class="cls-2" d="M185,128.5c.06,1.18.14,2.3.13,3.42.89-.36,1.76-.79,2.61-1.22a1.55,1.55,0,0,1,2,.54c-.9-1.2,1.43,0,2.31.29a11.88,11.88,0,0,1,1.76.63l0,0c3,.88,3.49,2.52,7-.25a1.53,1.53,0,0,1,2.51.66c1.41,5.73,6.21.59,8.79-1.4a1.51,1.51,0,0,1,2,.54c.71,1,4.17,5.18,6,2.92.4-.48,1.26-1.93,2-2.23,2.28-1,4,1.09,6,.54,5.1-1.42,7.56-3.16,12.6-1,2.57,1.09,3.45.8,5.27-1A3.11,3.11,0,0,1,248,130c2.78,0,2.68,3.84,5.39.11,3.68-5.07,10.59-2.88,16.07-4.45A53.85,53.85,0,0,0,257.6,119a1.6,1.6,0,0,1-.81-.69l0,0c-10,6.59-23.73,7.8-35.38,8-11.95.15-25.23-.55-36.14-6a1.47,1.47,0,0,1-.5-.4,2.66,2.66,0,0,1-.28,0,1.18,1.18,0,0,1-1.06,1c-3,.48-6.43,4-7.55,7.1a45.13,45.13,0,0,0,7.25-1A1.53,1.53,0,0,1,185,128.5Z"/><path class="cls-2" d="M170.05,168.52c6,5.56,7.71,14.95,5.42,22.53-4.74,15.74-26.16,19.21-39.59,14.94-12.34-3.91-24.79-14.4-26.2-27.92-.77-7.35,2.34-14.75,8.79-18.49,6.82-4,16-2.66,21.7,2.59a1.36,1.36,0,0,0,.32.23,1.24,1.24,0,0,0,1.28.76c2.51-.11,5.09-.28,7.67-.36a1.2,1.2,0,0,0,.93,0C157.49,162.64,164.56,163.41,170.05,168.52ZM125.78,163c-8.58,6.79-10.9,19.53-3,27.72,1.35,1.39,3.55-.65,2.2-2-6.88-7.09-4.51-17.7,2.79-23.48C129.34,164,127.28,161.8,125.78,163Z"/><path class="cls-2" d="M66.6,96.3a2.09,2.09,0,0,1-.6.24c-.17,0-.68.25-.65.23A1.85,1.85,0,0,0,65,97l0,0-.13.19,0,.13,0,.21a1.53,1.53,0,0,0,0,.3l0,.17c0,.1.3.63.15.38a2.19,2.19,0,0,0,.8.91,1.24,1.24,0,0,0,.71.31h.29c.34-.14.07,0,.37-.22a2.19,2.19,0,0,0,.71-1.66A2,2,0,0,0,66.6,96.3Z"/><path class="cls-2" d="M78.06,93.85l.21.17a33.87,33.87,0,0,1-17.64,18,1.91,1.91,0,0,0-.36-.13c-7.84-1.72-13-10.91-15.33-19.24l.28-.09C55.45,88,69.17,85.12,78.06,93.85Zm-10.27-.3a1.39,1.39,0,0,0-1.37.1,1.15,1.15,0,0,0-.73-.1c-2.13.49-3.89,1.74-3.94,4.09a5.21,5.21,0,0,0,2.45,4.26,4,4,0,0,0,5.32-.64A4.8,4.8,0,0,0,67.79,93.55Z"/><path class="cls-2" d="M207.21,289.53l.07-.06c-1.87-1.41-3.77-2.78-5.73-4.07-.91-.6-5.06-4-6.08-3.7a36.2,36.2,0,0,1-3.58.94c-1.12.26-5,2.39-2.67,2.93a12.17,12.17,0,0,1,3,1.05c2,1.05,8,4.33,4.23,7.38-1.36,1.1-3,1.13-3.94,2.87-.38.74-.81,1.38-1.25,2.09-.14.22.39.61,1.16,1h13.35C203.88,296.67,204.49,292.66,207.21,289.53Z"/><path class="cls-2" d="M209.58,300h10.26c-3.33-3-6.7-5.93-10.21-8.7C207.37,293.92,206.74,297.59,209.58,300Z"/><path class="cls-2" d="M236.33,148.55c-7.42.79-14.85,1.35-22.31,1.63-7.62.29-17.07,1.51-25.08-.49,1.75,6.44,7.25,8.65,14,9.14,6.51.48,13.08.68,19.61.69,11,0,34.37.87,33.66-14.82-.44.22-.9.43-1.37.62C249.14,147.59,242.41,147.9,236.33,148.55Z"/><path class="cls-2" d="M59.49,297.22a1.5,1.5,0,0,1-1.05-1.84c1-3.53,2.55-6.87,2.26-10.51-3.9,1.94-6.4,6.12-9.12,9.38A29.89,29.89,0,0,1,45.52,300H65.3C64.89,298,61,297.48,59.49,297.22Z"/><path class="cls-2" d="M257.43,203.34c2.83,4.13,2.87,9.49,1.43,14.11-3,9.5-14.73,13.16-23,8.27-11.27-6.66-10.1-26.76,2.47-29.82a1.26,1.26,0,0,0,1.07,0,11.27,11.27,0,0,1,1.48-.42c.36,0,.74,0,1.12,0a1.36,1.36,0,0,0,.81-.22C248.49,195,254.27,198.72,257.43,203.34Zm-15,14.21c-6.29-1.23-5.21-10.34-1.84-14,1.31-1.42-.81-3.54-2.12-2.12-4.82,5.22-5.52,17.3,3.16,19C243.49,220.82,244.3,217.93,242.4,217.55Z"/><path class="cls-2" d="M277.22,201.22c2.41,11,.13,21.91-4.46,31.94-2,4.31-4.45,8.54-8.43,11.27-5.31,3.65-12.37,1.21-18.24.94-11.11-.53-21.46,12.13-29.85-1.1-2.53-4-3.74-8.79-5.77-13-2.25-4.73-6.29-7.95-9.8-11.69s-6.36-8-6.5-13.24c-.16-6,4.4-11.74,8.17-15.89,7.79-8.57,19.34-13.28,30.71-14.36,8.4.16,16.86-.13,25.06,2C269.41,180.94,274.84,190.44,277.22,201.22Zm-36.89-8.67c-18.75,1.28-20.2,30.41-3.5,37,11,4.36,22.66-2.1,25.49-13.36C265.45,203.8,253.11,189.5,240.33,192.55Z"/><path class="cls-2" d="M41.48,68.7A17.94,17.94,0,0,1,34,65.9c.72,3.39,3.6,6,6.73,7.7A47.12,47.12,0,0,1,41.48,68.7Z"/><path class="cls-2" d="M105.7,232.32c-2.83-1.24-5.91-2.06-8.59-3.62-2.87-1.67-4.51-5.73-6.92-8A51,51,0,0,0,83,215.59c-4.09-2.69-6.14-6.18-8.67-10.24-4.27-6.85-10.94-12.53-7.89-20.87l.13-.08c9.93-7.77,17.52,4.35,23.65,11,3.45,3.74,9.55,5.27,12,9.64,1.5,2.71,2.11,5.66,3.9,8.26,2,3,5.34,5.19,7.81,7.72a12,12,0,0,1,3.86,8.46C117.66,236.51,109.45,234,105.7,232.32ZM78.38,198.25c-1.42.91-1.7-.46-2.1-1.69a24.53,24.53,0,0,0-1.39-4.3c-.93-1.68-3.68-.48-2.74,1.21,1.06,1.91,1.06,4.24,2.17,6.15,1.41,2.43,3.78,2.35,6,.95C81.9,199.53,80,197.21,78.38,198.25Zm12.27,9.2a1.53,1.53,0,0,0-2.11-.21,3,3,0,0,1-3.14,0,1.5,1.5,0,0,0-1.94.86,1.54,1.54,0,0,0,.85,1.94,5.94,5.94,0,0,0,6.13-.47A1.5,1.5,0,0,0,90.65,207.45Zm7.61.26c-1.55-1.16-3.31,1.27-1.76,2.43,1.71,1.28.66,3.5-.56,4.76s.55,3.72,1.9,2.33C100.43,214.55,101.7,210.29,98.26,207.71Zm9.07,19.34a6.44,6.44,0,0,0-4.47-2.65c-1.93-.14-2.27,2.84-.34,3A3.52,3.52,0,0,1,105,229C106.21,230.46,108.54,228.56,107.33,227.05Z"/><path class="cls-2" d="M134.13,244.33c-10.8-.52-22.3,9.14-15.59,18.77,1.95-6.64,12.58-10.43,13.39-1.48,1.54,17.05-31.2,7.89-27.33,23.28,1,4,4.54,7.67,8.78,8.13,5.44.59,8.43-3.29,10.92-7.55,3.49-6,6.64-12.14,14.24-12.78,3.92-.33,8,3,6.3,7.18-1.8,4.36-5.89,5.59-10.05,5.22,2.24,3.88,5.76,7.14,10.66,6.24a17.39,17.39,0,0,0,10.65-7c5.79-8,5.68-17.93.12-26.06C151.27,251,143.19,244.77,134.13,244.33Z"/><path class="cls-2" d="M102.15,153.21a32.52,32.52,0,0,0-2.92-2.44,1.52,1.52,0,0,1,.57-2.71c1.57-.46,3.15-.86,4.74-1.27-2.29-.81-4.57-1.68-6.86-2.51a1.51,1.51,0,0,1-.47-2.56,78.47,78.47,0,0,1,8.48-5.07c-3.57.07-7.14.15-10.7.47-1,.09-2.28-.84-1.71-2a39.18,39.18,0,0,1,5.37-7.43,56.25,56.25,0,0,1-8.43,3.85,1.49,1.49,0,0,1-1.76-1.19,18.1,18.1,0,0,1,0-3.68c-2,2.57-3.9,5.25-4.7,8.36,2.06,4.68,5.74,10.36,5.75,15.79C93.7,151.77,97.91,152.57,102.15,153.21Z"/><path class="cls-2" d="M66.74,166.7c-11.44,2.53-23.34,1-35,1.35,7.15-8.41,14.88-16.29,22.6-24.17,6-6.12,17.76-13.83,25.9-7.52a1.34,1.34,0,0,0,.94.31c2.5,5.54,6.68,11.64,4.53,17.79C83.2,161.66,73.43,165.22,66.74,166.7Zm-18.52-5a18.32,18.32,0,0,1-1.09-3.23,1.53,1.53,0,0,0-1.76-1.19A1.51,1.51,0,0,0,44.18,159a22.35,22.35,0,0,0,1.34,4A1.5,1.5,0,0,0,48.22,161.7Zm10.24-1c-1.5-2.7-2-5.75-2.7-8.74-.42-1.88-3.36-1.32-2.94.57.72,3.23,1.32,6.55,2.94,9.48C56.69,163.68,59.4,162.39,58.46,160.69Zm9.74-2.59c-1.24-3.54-3.43-7-3.59-10.8-.08-1.91-3.07-2.13-3-.2.18,4.43,2.44,8.2,3.88,12.3C66.13,161.22,68.83,159.9,68.2,158.1ZM78,156.24c-1.91-5.42-4.65-10.5-5.75-16.17a1.5,1.5,0,0,0-3,.57c1.16,5.93,4,11.24,6,16.9C76,159.36,78.67,158,78,156.24Z"/><path class="cls-2" d="M197.29,252.41c-2.43-2.57-4.07-5.94-6.69-8.32-4-3.65-8.21-2.17-11.39,1.54a1.54,1.54,0,0,1-.76.5c.21,14.9,18.27,23.55,30.33,27.68a73.42,73.42,0,0,0,23.41,4.3,124,124,0,0,0,16-1.17,99.11,99.11,0,0,1-31.72-11.59C210.16,261.7,202.35,257.75,197.29,252.41Z"/><path class="cls-2" d="M267.51,300H224.12c-8.69-7.83-17.49-15.52-27.77-21.29a1.47,1.47,0,0,0-1.5-.13c-3.89,2.41-7.68.72-9.31,5.85-1.07,3.37,2.72,3.83,4.92,4.6,1.15.41,4.43,2.83,2.24,3.55-1.71.55-2.36,1.62-2.95,3.23-.37,1-1.75,2-1.45,3.21a4.2,4.2,0,0,0,.4,1H68.34c-.21-2.78-3.56-4.53-6.56-5.34,1.25-4.1,2.61-7.88,1.55-12.28a1.5,1.5,0,0,0-1.84-1.05c-9.06,2.79-11.68,13.88-20.14,17.63l0-.08a1.17,1.17,0,0,0-1.06-1.08,1.47,1.47,0,0,0-2.44-.58,10.76,10.76,0,0,1-4.7,2.78H23.42c-7-1.4-14.53-4.94-19.67-6.29-1.23-.32-2.49-.6-3.75-.85V221.43c1.48,2.23,2.92,4.26,4.17,6,7.63,10.66,16.06,20,26.56,27.79,11.7,8.73,25.69,18,40.43,20.1C81,276.75,88,271.64,89.56,261.9c1.81-11-4.42-19.34-13.23-23.47C76,225.83,65.85,219.7,54.41,217c-4.91-10.82-12.91-19.9-23.47-23.42a1.36,1.36,0,0,0,.28-1.11C29.31,179.55,11.56,175.31,0,180.1V144.85c.12-.21.25-.42.36-.63A46.63,46.63,0,0,0,9.6,150a1.54,1.54,0,0,0,2.2-.9c.24-.63.52-1.23.81-1.82,2.28.92,5.1,2.63,7.59,2s4.39-4.46,5.75-6.44l1,.49a1.53,1.53,0,0,0,2.06-.54,36.26,36.26,0,0,0,4.81-14l.56.07a1.48,1.48,0,0,0,1.44-1.1c1.37-5.81,1-14.56-3-19.6.32-.16.64-.33,1-.51a1.48,1.48,0,0,0,.69-1.69,17.3,17.3,0,0,0-9-9.3,18,18,0,0,0,5.32-4.24,1.53,1.53,0,0,0-.3-2.36A28.84,28.84,0,0,0,0,90.26V64.2A39.05,39.05,0,0,0,21.66,49c4.46-6.29,5.44-13.77,7.82-20.92a15.56,15.56,0,0,1,1-2.42,1.16,1.16,0,0,0,.89-1.37l0-.14c3.2-5,8.41-7.79,12.31-12.35a1.59,1.59,0,0,0,1.51-2.27c-.3-.61-.6-1.22-.89-1.83a1.51,1.51,0,0,0,.85-.12C51.32,4.93,63.08,10,67.46,3a4.9,4.9,0,0,0,.88-3h36.78c-3,.31-4.67,3.43-4.28,6.75-2.89.33-5.36,1.88-4.67,5.44a8.65,8.65,0,0,0,3.48,5c2.29,1.79,5.85,2.3,7.79,4.46a2.32,2.32,0,0,0,.3.26c.19,3,2.15,6.19,4.69,8.72-3.86.82-7.69.78-11.75-1.84a1.21,1.21,0,0,0-1.75.36,1.57,1.57,0,0,0-1.32,1c-4.37-1.36-8-6.68-13-5-3.83,1.31-4,4.74-2.45,7.6-2.52,1.26-3.29,4-1.21,6.84a8,8,0,0,0,4.92,3C88.94,43.3,92,41.43,95,41a1.53,1.53,0,0,0,1.6,1.54c7.26.2,13.15,6.2,18.75,11.23a1.27,1.27,0,0,0,.11.95c2.91,5.86,6.79,10.29,13.25,12.06,8.26,2.27,18.53-.53,26.73-1.83,13.93-2.22,36.39-7.66,31.79-26.43C183.54,23.38,170.75,9.26,155,6.71a35.75,35.75,0,0,0-33.76,13.64,1.37,1.37,0,0,0-1.35-.2c-1.9.64-4.74-3.68-5.69-4.9a1.83,1.83,0,0,0-.93-.62C112.79,10,112.83,3,108.58.77A6.9,6.9,0,0,0,106.07,0H188.7a14.2,14.2,0,0,0,2.86,3.19,4.55,4.55,0,0,0,1.88,1.07,18.49,18.49,0,0,1,1.35,6.84,1.72,1.72,0,0,0,.09.52,7.81,7.81,0,0,0-1.66,9.43,6.84,6.84,0,0,0,2.72,2.59,1.71,1.71,0,0,0,1.63,1.1c1.54,9.52,1.86,19.26,4.93,28.46a1.18,1.18,0,0,0,.89.86A8.76,8.76,0,0,0,206,58.3c2.5,2.21,5.72,2,8.22-.11a1.35,1.35,0,0,0,.48-1.44c13.63-2.92,26.72-6.93,37-16.92,3.23-3.14,5.29-7.7,3.85-12.19-1.33-4.17-3-7.83-7.45-7.47a1.73,1.73,0,0,0-.7-.33,1.52,1.52,0,0,0-.48-.58C238.83,13.45,231.51,6.67,224.12,0h43.39c-8.68,7.38-6.84,22.81-4.58,32.59,2.82,12.27,9.62,27.92,22.35,32.64a15,15,0,0,0,9.89.06A47.69,47.69,0,0,0,300,64.2V90.26c-.24.16-.49.3-.73.47a1.61,1.61,0,0,0-.46.48,1.53,1.53,0,0,0-1.19-.3c-9,1.44-20.39,8.43-22,18a1.56,1.56,0,0,0,1,1.85,17.14,17.14,0,0,0,3.2.82c-.89,6.67-.62,12.93,2.24,19.15a1.52,1.52,0,0,0,2.36.31c.5-.48,1-1,1.54-1.44,1.86,6.62,6.64,11.15,11.34,16.1a1.5,1.5,0,0,0,2.35-.3l.35-.6V180.1a17,17,0,0,0-7.13,5.22c-7.93,10.32.06,25.48,7.13,36.11v71.43c-10.26-2-21.22-1.37-29.67,5.36l-.07.07a1.43,1.43,0,0,0-.63.19A15.88,15.88,0,0,0,267.51,300Zm4.92-116.73c-6.37-7.93-17.51-9.5-27-10-3.79-.19-7.58-.18-11.37-.23a1.45,1.45,0,0,0-.57-.06l-.39,0L231,173a1.35,1.35,0,0,0-1.08.43,52.66,52.66,0,0,0-27.57,12.75c-7,6.28-14.15,17-9.87,26.63,2.09,4.72,5.57,8.46,9.19,12.06,5.18,5.16,7.13,10.59,10.07,17.11,1.85,4.1,4.51,9,9,10.67,5.25,2,10.29.25,15.29-1.71,3.35-1.31,6.41-2.48,10.08-2.57,3.19-.08,6.42.72,9.61,1A17.08,17.08,0,0,0,269,244.5c7.1-6.68,10.7-18.82,11.86-28.12C282.25,205.08,279.63,192.26,272.43,183.27ZM172.5,129.5c-.09.86.75,1.44,1.5,1.5a29.48,29.48,0,0,0,8.12-.72,17.11,17.11,0,0,1,0,2.48c-4.64,5.12-5.77,11,1.08,14.77a23.36,23.36,0,0,0,2.44,1.11c1,5.9,4,10,9.93,12,8.18,2.76,18.46,1.85,27,1.92,13.78.13,38.67-.12,36.48-19.55,4.69-3.57,6.17-9,.95-13.33,4.58-.87,8.85.22,13.27-2.34a1.53,1.53,0,0,0,0-2.6c-4.56-3.33-9.55-6.65-14.86-8.65a1.23,1.23,0,0,0-1.21.13l-.13-.2c1.4-11.43-.81-22.21-8.57-31.06-7-7.91-17.81-12-28.21-11.42s-20.4,7.1-26.88,14.91c-6.87,8.3-9.38,19.14-10.36,29.64a1.62,1.62,0,0,0-.44,0C177.72,118.85,173,124.81,172.5,129.5Zm-16.92,30.4c3.39-1.89,6.38-4.11,6.53-8.53a1.51,1.51,0,0,0-1.47-1.54,28.26,28.26,0,0,0-8.86,1.87,25.06,25.06,0,0,0-1.55-8.45,1.51,1.51,0,0,0-2.59-.09,73,73,0,0,0-3.26,7.75c-2.32-2.35-4.38-4.61-8.09-4.61a1.52,1.52,0,0,0-1.5,1.84,27.8,27.8,0,0,0,3.28,8.91C125.81,150.33,109.25,157,107,172c-2.63,17.35,12,30.88,26.9,36.52,16,6,38,.55,44.46-16.55,3.11-8.21.2-18-5.18-24.47C168.69,162,162.26,160.31,155.58,159.9ZM115.4,105.37c5.14,1.58,10.75.65,16,1.68,2.61.51,9.49,5.14,6.13,8.26-3.91,3.63-7.7-4.14-8.22-6.59-.36-1.74-2.95-1.59-3,0-7.6,9.81-3.77,20.56,7.93,24.35,11.55,3.74,23.29-1.86,29.13-12.14s7-23.92-.18-33.9a19.55,19.55,0,0,0-16-8.13c-6.51.08-10.44,5.62-12.09,11.26a1.23,1.23,0,0,0-.21.92,1.27,1.27,0,0,0,1.28,1.21,1.49,1.49,0,0,0,1.42-.45c4.31-4.56,14.52,3.24,4.87,5.58C136.63,98.79,132,90.77,129,87c-5.27-6.42-13.71-8.91-19.49-1.56C104.05,92.39,107.08,102.81,115.4,105.37ZM40.46,76.81a72.1,72.1,0,0,0,.08,8.35c.7,10.92,7.4,27.13,19.23,29.72h.07a1.26,1.26,0,0,0,1.42.17C72.92,109.92,81,100.1,83,87.64c15.7,6.71,7.31-28.07,6.51-34.56A1.51,1.51,0,0,0,87.14,52c-3.49,2.74-6.31,6.15-9.61,9.08A27,27,0,0,0,66,50.2c2.12-7.33,7.17-13.39,8.63-21a1.52,1.52,0,0,0-1.23-1.73c-10.29-2.64-23.57-.74-32.46,5.16a1.49,1.49,0,0,0-.52,1.75c2.93,6.49,7.74,11.71,11.54,17.66-5.07,3.05-8,8.05-9.72,13.68-3.17-.07-6.49-2.07-8.88-3.93a1.52,1.52,0,0,0-2.43.91C30.05,69.16,34.91,74.32,40.46,76.81Zm33.31,91c6.38-2.24,12.88-6.91,15.17-13.47.06-.18.1-.35.15-.52,5.74,1.25,11.51,2.28,17.34,3a1.51,1.51,0,0,0,1.25-2.47c-1.47-1.39-2.89-2.81-4.4-4.14,2.28-.59,4.57-1.14,6.83-1.8,1.3-.39,1.77-2.45.2-2.89-3-.85-5.9-1.94-8.82-3a73.81,73.81,0,0,1,12.11-6.18c1.35-.53,1-2.91-.55-2.84-5.21.23-10.42.18-15.62.49,2.13-3.14,5-5.77,7.1-8.93.68-1-.19-2.74-1.52-2.33-4.13,1.27-7.69,3.76-11.67,5.32a19.61,19.61,0,0,1,1.07-5.53,1.5,1.5,0,0,0-1.3-2,1.44,1.44,0,0,0-2,.39c-2.82,3.91-6.53,7.69-8,12.39-7.82-5.22-17.49-.44-24.33,4.5-5.47,3.95-10,9.45-14.62,14.29-5.18,5.41-10.23,11-15,16.72-1,1.15.37,2.4,1.52,2.33C43.78,170.16,59.19,172.92,73.77,167.8Zm22.72,64a125.54,125.54,0,0,0,11.79,4.81c5.79,2.1,13.22-1.15,12.46-8.21-1-8.8-9.54-11.89-13.54-18.89-1.93-3.4-2.21-6.88-5.35-9.48s-6.54-3.61-9.31-6.52c-7.29-7.65-15.41-19.66-26.52-12.38a1.53,1.53,0,0,0-1.76.84c-4,8.32,0,14.49,5,21.27,2.76,3.76,4.77,8.91,8.38,12,4,3.4,8.83,5.61,12.37,9.53C92.2,227.2,93.35,230.27,96.49,231.78Zm62.64,25.47c-6.38-10-17.89-17.35-30.06-15.68a19.55,19.55,0,0,0-14.64,10.3c-3,5.8.09,11.86,4.3,16a1.21,1.21,0,0,0,.72.61,1.25,1.25,0,0,0,1.66-.56,1.5,1.5,0,0,0,.27-1.48c-2-5.93,9.65-11.31,7.21-1.69-1.48,5.85-10.73,6.17-15.46,7.13-8.14,1.65-14.29,8-10.48,16.5,3.57,8,14.21,10.23,20.35,4.07,3.8-3.81,5.6-9.2,9-13.37,1.67-2.07,9-6,10.16-1.56,1.39,5.15-7.25,4.87-9.67,4.18-1.7-.48-2.77,1.87-1.44,2.65,5.12,11.3,16.41,12.93,25.23,4.36S165.49,267.21,159.13,257.25ZM259.8,275.43c-19.22-1.46-35.94-8.49-51.94-18.95-4.11-2.69-8.15-5.46-11.11-9.43-1.9-2.54-3.75-5.65-6.71-7.09a9.21,9.21,0,0,0-9.27.47c.57-7.54-3.27-14.67-5.58-21.65-.6-1.84-3.3-.52-2.7,1.29,2,6,5.23,12.1,5.34,18.51-4.18-7.6-10.33-13.9-14.92-21.29-1-1.63-3.73-.35-2.71,1.29,4.16,6.69,9.62,12.52,13.71,19.21a53.89,53.89,0,0,0-4.49-3.16,65.1,65.1,0,0,1-15-13.21,1.5,1.5,0,0,0-2.28,1.94,58.79,58.79,0,0,0,11.44,11.12c3.14,2.15,7.52,4.11,10.14,7.19-5.48-2-11.3-3.33-15.83-7.08-1.49-1.24-3.16,1.26-1.68,2.48,5.55,4.61,12.85,5.51,19.24,8.47v.07c0,15.7,16.41,24.76,29.14,29.84A79.76,79.76,0,0,0,229,281c10.38.69,20.79-1.28,31-2.6C261.71,278.18,261.47,275.56,259.8,275.43Z"/><path class="cls-2" d="M83.36,84.5c7.89,3.73,6.58-8.71,6-13.55-.53-5-1.7-9.88-2.49-14.82-2.71,2.47-5.14,5.23-7.91,7.65A41.54,41.54,0,0,1,83.36,84.5Z"/><path class="cls-2" d="M67.53,81.53a1.5,1.5,0,0,1-2.37-.06c-2.16-3.39-7.91-4.36-8.92.55a1.51,1.51,0,0,1-2.42.92c-3.74-3-7.09-1.2-9.09,2.64a1.48,1.48,0,0,1-1.06.79c.12,1.07.3,2.2.55,3.38,10.91-4.87,25.46-7.54,35.09,1.18a30.53,30.53,0,0,0,.91-4.72,1.37,1.37,0,0,1-.38-.58C78.29,81.33,71.1,77.36,67.53,81.53Z"/><path class="cls-2" d="M0,296v4H13.67l-1.35-.46A103.84,103.84,0,0,0,0,296Z"/><path class="cls-2" d="M50.54,56.81a15.33,15.33,0,0,1,3.8-2.69,1.63,1.63,0,0,0,.42-2.56,1.43,1.43,0,0,0-.23-1c-3.46-5.49-7.89-10.32-10.78-16.14,7.76-4.65,18.73-6.13,27.59-4.32-1.82,7.17-6.65,13.12-8.52,20.3a1.23,1.23,0,0,0,.44,1.37,1.32,1.32,0,0,0,.82.87,19.83,19.83,0,0,1,5.16,3.16,15.13,15.13,0,0,0-7.11,2.84C58.59,55.33,54.57,55.21,50.54,56.81ZM59,43.47c0,1.94,3,1.61,3-.31,0-3.12,0-6.23.33-9.35.17-1.91-2.78-2.42-3-.49C59.09,36.7,59,40.08,59,43.47ZM57.8,48.23c-1.43-4.19-2.84-8.39-4-12.67-.5-1.86-3.29-.76-2.8,1.09,1.14,4.28,2.55,8.47,4,12.66C55.63,51.14,58.42,50.05,57.8,48.23Z"/><path class="cls-2" d="M55.1,69.27c2.71-4,8.29-3.65,11.86-.11,3.16-2.12,6.83-3.19,10.28-2a32.72,32.72,0,0,0-5.13-8.56,1.5,1.5,0,0,1-.68.08c-3.4-.32-6,1.07-8.57,3.08a1.53,1.53,0,0,1-2.1-.33c-4-4.58-8.69-2.69-13,.2a1.4,1.4,0,0,1-.93.26,30.45,30.45,0,0,0-2.54,7.43C48,67.34,52,66.48,55.1,69.27Z"/><path class="cls-2" d="M54,79.48c2.4-4.7,8.88-5,12.53-1.08,4.13-3.08,10.27-1.29,13.82,2.51a41.83,41.83,0,0,0-1.74-9.85,1.45,1.45,0,0,1-.92-.29c-3.43-2.46-7.25-.59-10.07,1.6a1.51,1.51,0,0,1-2.1-.32c-2.07-2.74-7.23-4.72-8.62.19-.32,1.14-1.91,1.84-2.69.63-2.76-4.26-7.06-2-10.31.26l-.25.15a56.73,56.73,0,0,0-.32,9C46.05,78.72,50,77.31,54,79.48Z"/><path class="cls-2" d="M100.18,32a77.84,77.84,0,0,0-1.92,7.8c6.38.91,11.47,5.4,16.23,9.54,5.25,4.56,13.25,12.54,20.77,8,5.18-3.16,8.59-8.64,7.85-14.88-.89-7.52-6.66-13.37-14.62-12.69C118.35,30.56,109.8,37.47,100.18,32Z"/><path class="cls-2" d="M138.94,29.43c8,5.87,10.1,19,2.81,26.46-6.06,6.21-13.25,7-20.34,2.67a16,16,0,0,0,13,5.9c6.93-.1,14-1.31,20.85-2.47,7.79-1.32,17.15-2.91,23.7-7.72,6.13-4.51,7.08-11.33,4.48-18.2A49.47,49.47,0,0,0,174,20.61c-.76,3.22-1.78,6.33-4.44,8.56-1.48,1.25-3.17-1.23-1.7-2.47,2.47-2.08,3-5.63,3.64-8.62a33.9,33.9,0,0,0-9.83-6.5,30.74,30.74,0,0,1-1.17,12.36c-.57,1.83-3.52,1.28-2.95-.57a28.83,28.83,0,0,0,1-12.72v-.18a26.62,26.62,0,0,0-5.44-1,39.16,39.16,0,0,0-4.33,0c1,4.47,1.64,9.13.63,13.66-.41,1.89-3.36,1.32-2.94-.58.92-4.14.35-8.44-.61-12.52a1.77,1.77,0,0,1-.05-.32A32.44,32.44,0,0,0,119.93,28.4c1.21-.37,2.43-.73,3.68-1C128.63,26.2,134.6,26.24,138.94,29.43Z"/><path class="cls-2" d="M.78,132.32a1.3,1.3,0,0,1-.78.19v5.41a36.33,36.33,0,0,0,1.75-6.33C1.43,131.83,1.12,132.09.78,132.32Z"/><path class="cls-2" d="M115.88,29.69l.39-.12a1.4,1.4,0,0,1,.1-.44,34.08,34.08,0,0,1,2.95-6c-2.67-.18-5-2.93-6.7-5.12C107.94,21.27,112.38,26.79,115.88,29.69Z"/><path class="cls-2" d="M85.87,28c-2.77.51-1.66,3.11-.32,4.5a1.52,1.52,0,0,1-.86,2.64c-3.41.4-1.62,3.34.59,4.25,3.18,1.31,7-1.26,10.26-1.4.34-1.65.75-3.28,1.21-4.91a20,20,0,0,1-5.87-3.22C89.48,28.86,87.69,27.65,85.87,28Z"/><path class="cls-2" d="M19.8,141.09a1.49,1.49,0,0,1-1.84,1c-.82-.32-1.6-.68-2.37-1.06A24.25,24.25,0,0,1,14,144.64c1.64.77,3.81,2,5.36,1.78,1.39-.19,3.12-3.67,3.92-4.94l-3.18-1.59C20,140.29,19.89,140.69,19.8,141.09Z"/><path class="cls-2" d="M20.73,110.78a1.47,1.47,0,0,1-.15-.43,18,18,0,0,1-9-2.81,8.2,8.2,0,0,1-.4.78,38.25,38.25,0,0,1-1,9.57l.24,0c4.37.9,8.68,2,13.1,2.47A22.2,22.2,0,0,0,20.73,110.78Z"/><path class="cls-2" d="M33.13,0h-9.7A20.49,20.49,0,0,0,33.13,0Z"/><path class="cls-2" d="M0,45.15V56.79c0-.15.1-.27.13-.42A25,25,0,0,0,0,45.15Z"/><path class="cls-2" d="M8.08,112a26.75,26.75,0,0,1-6.3,3.61A1.64,1.64,0,0,1,0,115.46v13.22l.24.31C5.43,124.86,7.58,118.51,8.08,112Z"/><path class="cls-2" d="M8.19,108a1.35,1.35,0,0,1,.71-1.21,4.93,4.93,0,0,0,.41-2.14C9.08,99.24,4.84,96,.12,94.4L0,94.59V109c.55,1.22,1.15,2.39,1.71,3.47C4,111.41,6.7,110,8.19,108Z"/><path class="cls-2" d="M1.57,60.57A38.61,38.61,0,0,0,11,55.74l.08-.22c5.1-10.73.09-24-6.5-33C3.44,21,6.05,19.48,7.18,21c6.31,8.56,10.73,20.41,8.23,31.05a30,30,0,0,0,6.73-9.92,1.38,1.38,0,0,1-.25-.87c.27-12.47-5.15-25.62-15.26-33.21C5.1,6.93,6.6,4.32,8.14,5.48,17.22,12.3,22.94,23,24.47,34.23c.91-3.81,1.86-7.73,3.71-11-.86-4.17-3.32-7.81-5.09-11.65-.8-1.74,1.79-3.27,2.59-1.51,1.57,3.42,3.49,6.6,4.69,10.09,3.45-4,8.17-6.59,11.42-10.72A35.57,35.57,0,0,1,38.6.53C31.76,5.8,21.31,2.61,13.67,0H0V34.74a64.61,64.61,0,0,1,2.6,8.65C3.76,48.66,4.79,55.72,1.57,60.57Z"/><path class="cls-2" d="M43.2,5.26A1.78,1.78,0,0,1,43.63,5c5-2.13,9-1,14.26-1.2,1.9-.07,7-.41,7.43-3.09a2,2,0,0,0,0-.69H45.52A18.83,18.83,0,0,1,42,1.92,32.3,32.3,0,0,0,43.2,5.26Z"/><path class="cls-2" d="M20.77,136.89l6.3,3.15a31.23,31.23,0,0,0,3.78-11.61c-2.82-.4-5.63-.89-8.46-1.19A57.38,57.38,0,0,1,20.77,136.89Z"/><path class="cls-2" d="M102.42,9.66c-6.52-.5-1.55,5,1.23,6.42a37.11,37.11,0,0,1,4.71,2.49A7.36,7.36,0,0,1,110.47,16c-.5-3-.68-6.08-1.41-9-.38-1.57-.87-3.7-2.88-4-3-.4-2.75,2.83-2.06,4.69A1.52,1.52,0,0,1,102.42,9.66Z"/><path class="cls-2" d="M12.91,139.63v0a32.93,32.93,0,0,1-8.26-7.42,39.6,39.6,0,0,1-2.92,9.32,43.19,43.19,0,0,0,7.89,5.16C10.76,144.32,12.22,142.13,12.91,139.63Z"/><path class="cls-2" d="M17.3,138.6c1.25-5.23,2.73-10.4,2-15.81-3.25-.57-6.47-1.32-9.72-2l-.27-.09a24.64,24.64,0,0,1-4,7.35A29.68,29.68,0,0,0,17.3,138.6Z"/><path class="cls-2" d="M23.86,110.36A23.82,23.82,0,0,1,26.52,122a1.51,1.51,0,0,1-1.5,1.5c-.89-.07-1.77-.17-2.65-.29,0,.34,0,.67,0,1,3.6.39,7.15,1.07,10.75,1.48.89-5.2.36-12.66-3.32-16.41A25.8,25.8,0,0,1,23.86,110.36Z"/><path class="cls-2" d="M9.69,96.86A33,33,0,0,0,20,95.63l.19-.06a18.53,18.53,0,0,0,7.05-3.88,26,26,0,0,0-24.64.47,20,20,0,0,1,6.85,4.71Z"/><path class="cls-2" d="M33.22,253.33a142.13,142.13,0,0,0,21.15,13.1c6.32,3.1,13.89,6.62,21.12,6.12s10.85-5.86,11.31-12.92c1-15-14.4-22.78-27.75-20.84a1.5,1.5,0,0,1-.42-3,31.6,31.6,0,0,1,14.69,1.39,15.49,15.49,0,0,0-3.13-8.36,1.48,1.48,0,0,1-.7.05c-6.42-.93-13-1.43-18.85,1.85a1.5,1.5,0,0,1-1.51-2.59c5.61-3.13,11.67-3.25,17.81-2.58-8.29-6.51-22.74-7.7-32.06-7.39-1.91.07-2.35-2.9-.41-3a81.74,81.74,0,0,1,16.26,1.05,50.52,50.52,0,0,0-4.18-7,1.4,1.4,0,0,1-.75-.22c-5.28-3.23-14.06-4.7-19.82-2-1.74.81-3.27-1.77-1.52-2.59,5.13-2.4,12-2.22,17.75-.32-6.39-6.41-14.75-10.21-24.87-8.91a1.5,1.5,0,0,1-.41-3,31.85,31.85,0,0,1,11.31.53C26.76,183.31,14.07,180.36,6,181.51a20.74,20.74,0,0,0-6,1.68v32.17a98.56,98.56,0,0,0,5.87,9.3C13.75,235.67,22.28,245.35,33.22,253.33Z"/><path class="cls-2" d="M11.49,99.87a9.19,9.19,0,0,1,.82,4.63,1.36,1.36,0,0,1,.47.23c4.57,3.43,12.94,3.37,18.28,1A13.22,13.22,0,0,0,20.8,98.54,35,35,0,0,1,11.49,99.87Z"/><path class="cls-3" d="M109.49,85.47c5.78-7.35,14.22-4.86,19.49,1.56,3.06,3.74,7.65,11.76,13.52,10.34,9.65-2.34-.56-10.14-4.87-5.58a1.49,1.49,0,0,1-1.42.45A1.27,1.27,0,0,1,134.93,91a1.23,1.23,0,0,1,.21-.92c1.65-5.64,5.58-11.18,12.09-11.26a19.55,19.55,0,0,1,16,8.13c7.16,10,6,23.59.18,33.9S145.79,136.76,134.24,133c-11.7-3.79-15.53-14.54-7.93-24.35.06-1.54,2.65-1.69,3,0,.52,2.45,4.31,10.22,8.22,6.59,3.36-3.12-3.52-7.75-6.13-8.26-5.26-1-10.87-.1-16-1.68C107.08,102.81,104.05,92.39,109.49,85.47Zm.87,11.69c2,5.08,6.85,5.91,11.77,6.12,6.91.3,13.84.2,18,6.62,2.13,3.31,1.11,8.49-3.4,8.92-4.69.45-7.7-2.6-9.31-6.44-2.39,3.79-3.62,8.43-.54,12.34a17.38,17.38,0,0,0,11.22,6.12c9.77,1.39,18.5-3.35,23.09-12.07,4.07-7.75,5.82-17.81,2-26-4.59-9.79-18.5-15.45-23.88-5,6.79-1.38,15.1,6.25,7.56,11.15-14.35,9.33-21.55-23.9-33.35-13.29C110.38,88.34,108.78,93.19,110.36,97.16Z"/><path class="cls-3" d="M159.13,257.25c6.36,10,5.82,23-2.88,31.42s-20.11,6.94-25.23-4.36c-1.33-.78-.26-3.13,1.44-2.65,2.42.69,11.06,1,9.67-4.18-1.19-4.43-8.49-.51-10.16,1.56-3.37,4.17-5.17,9.56-9,13.37-6.14,6.16-16.78,4-20.35-4.07-3.81-8.54,2.34-14.85,10.48-16.5,4.73-1,14-1.28,15.46-7.13,2.44-9.62-9.22-4.24-7.21,1.69a1.5,1.5,0,0,1-.27,1.48,1.25,1.25,0,0,1-1.66.56,1.21,1.21,0,0,1-.72-.61c-4.21-4.1-7.27-10.16-4.3-16a19.55,19.55,0,0,1,14.64-10.3C141.24,239.9,152.75,247.24,159.13,257.25Zm-2.91,1c-4.95-7.22-13-13.46-22.09-13.9-10.8-.52-22.3,9.14-15.59,18.77,1.95-6.64,12.58-10.43,13.39-1.48,1.54,17.05-31.2,7.89-27.33,23.28,1,4,4.54,7.67,8.78,8.13,5.44.59,8.43-3.29,10.92-7.55,3.49-6,6.64-12.14,14.24-12.78,3.92-.33,8,3,6.3,7.18-1.8,4.36-5.89,5.59-10.05,5.22,2.24,3.88,5.76,7.14,10.66,6.24a17.39,17.39,0,0,0,10.65-7C161.89,276.3,161.78,266.36,156.22,258.23Z"/><path class="cls-3" d="M73.77,167.8c-14.58,5.12-30,2.36-45.06,3.35-1.15.07-2.47-1.18-1.52-2.33,4.77-5.77,9.82-11.31,15-16.72,4.65-4.84,9.15-10.34,14.62-14.29,6.84-4.94,16.51-9.72,24.33-4.5,1.46-4.7,5.17-8.48,8-12.39a1.44,1.44,0,0,1,2-.39,1.5,1.5,0,0,1,1.3,2A19.61,19.61,0,0,0,91.34,128c4-1.56,7.54-4.05,11.67-5.32,1.33-.41,2.2,1.33,1.52,2.33-2.12,3.16-5,5.79-7.1,8.93,5.2-.31,10.41-.26,15.62-.49,1.5-.07,1.9,2.31.55,2.84a73.81,73.81,0,0,0-12.11,6.18c2.92,1.09,5.83,2.18,8.82,3,1.57.44,1.1,2.5-.2,2.89-2.26.66-4.55,1.21-6.83,1.8,1.51,1.33,2.93,2.75,4.4,4.14a1.51,1.51,0,0,1-1.25,2.47c-5.83-.73-11.6-1.76-17.34-3,0,.17-.09.34-.15.52C86.65,160.89,80.15,165.56,73.77,167.8Zm10-32.74c2.06,4.68,5.74,10.36,5.75,15.79,4.19.92,8.4,1.72,12.64,2.36a32.52,32.52,0,0,0-2.92-2.44,1.52,1.52,0,0,1,.57-2.71c1.57-.46,3.15-.86,4.74-1.27-2.29-.81-4.57-1.68-6.86-2.51a1.51,1.51,0,0,1-.47-2.56,78.47,78.47,0,0,1,8.48-5.07c-3.57.07-7.14.15-10.7.47-1,.09-2.28-.84-1.71-2a39.18,39.18,0,0,1,5.37-7.43,56.25,56.25,0,0,1-8.43,3.85,1.49,1.49,0,0,1-1.76-1.19,18.1,18.1,0,0,1,0-3.68C86.45,129.27,84.56,132,83.76,135.06Zm-17,31.64c6.69-1.48,16.46-5,19-12.24,2.15-6.15-2-12.25-4.53-17.79a1.34,1.34,0,0,1-.94-.31c-8.14-6.31-19.91,1.4-25.9,7.52-7.72,7.88-15.45,15.76-22.6,24.17C43.4,167.73,55.3,169.23,66.74,166.7Z"/><path class="cls-3" d="M72.28,140.07a1.5,1.5,0,0,0-3,.57c1.16,5.93,4,11.24,6,16.9.64,1.82,3.34.5,2.7-1.3C76.12,150.82,73.38,145.74,72.28,140.07Z"/><path class="cls-3" d="M64.61,147.3c-.08-1.91-3.07-2.13-3-.2.18,4.43,2.44,8.2,3.88,12.3.63,1.82,3.33.5,2.7-1.3C67,154.56,64.77,151.12,64.61,147.3Z"/><path class="cls-3" d="M55.76,152c-.42-1.88-3.36-1.32-2.94.57.72,3.23,1.32,6.55,2.94,9.48.93,1.68,3.64.39,2.7-1.31C57,158,56.43,154.94,55.76,152Z"/><path class="cls-3" d="M47.13,158.47a1.53,1.53,0,0,0-1.76-1.19A1.51,1.51,0,0,0,44.18,159a22.35,22.35,0,0,0,1.34,4,1.5,1.5,0,0,0,2.7-1.31A18.32,18.32,0,0,1,47.13,158.47Z"/><path class="cls-3" d="M108.28,236.59a125.54,125.54,0,0,1-11.79-4.81c-3.14-1.51-4.29-4.58-6.52-7-3.54-3.92-8.38-6.13-12.37-9.53-3.61-3.08-5.62-8.23-8.38-12-5-6.78-9-12.95-5-21.27a1.53,1.53,0,0,1,1.76-.84c11.11-7.28,19.23,4.73,26.52,12.38,2.77,2.91,6.31,4,9.31,6.52s3.42,6.08,5.35,9.48c4,7,12.58,10.09,13.54,18.89C121.5,235.44,114.07,238.69,108.28,236.59Zm-2.58-4.27c3.75,1.64,12,4.19,12-2.85a12,12,0,0,0-3.86-8.46c-2.47-2.53-5.77-4.77-7.81-7.72-1.79-2.6-2.4-5.55-3.9-8.26-2.41-4.37-8.51-5.9-12-9.64-6.13-6.64-13.72-18.76-23.65-11l-.13.08c-3,8.34,3.62,14,7.89,20.87,2.53,4.06,4.58,7.55,8.67,10.24a51,51,0,0,1,7.19,5.09c2.41,2.29,4,6.35,6.92,8C99.79,230.26,102.87,231.08,105.7,232.32Z"/><path class="cls-3" d="M78.38,198.25c-1.42.91-1.7-.46-2.1-1.69a24.53,24.53,0,0,0-1.39-4.3c-.93-1.68-3.68-.48-2.74,1.21,1.06,1.91,1.06,4.24,2.17,6.15,1.41,2.43,3.78,2.35,6,.95C81.9,199.53,80,197.21,78.38,198.25Z"/><path class="cls-3" d="M88.54,207.24a3,3,0,0,1-3.14,0,1.5,1.5,0,0,0-1.94.86,1.54,1.54,0,0,0,.85,1.94,5.94,5.94,0,0,0,6.13-.47,1.5,1.5,0,0,0,.21-2.11A1.53,1.53,0,0,0,88.54,207.24Z"/><path class="cls-3" d="M98.26,207.71c-1.55-1.16-3.31,1.27-1.76,2.43,1.71,1.28.66,3.5-.56,4.76s.55,3.72,1.9,2.33C100.43,214.55,101.7,210.29,98.26,207.71Z"/><path class="cls-3" d="M102.86,224.4c-1.93-.14-2.27,2.84-.34,3A3.52,3.52,0,0,1,105,229c1.2,1.51,3.53-.39,2.32-1.9A6.44,6.44,0,0,0,102.86,224.4Z"/><path class="cls-3" d="M.36,144.22c-.11.21-.24.42-.36.63v-6.93a36.33,36.33,0,0,0,1.75-6.33c-.32.24-.63.5-1,.73a1.3,1.3,0,0,1-.78.19v-3.83l.24.31c5.19-4.13,7.34-10.48,7.84-17a26.75,26.75,0,0,1-6.3,3.61A1.64,1.64,0,0,1,0,115.46V109c.55,1.22,1.15,2.39,1.71,3.47,2.26-1,5-2.45,6.48-4.46a1.35,1.35,0,0,1,.71-1.21,4.93,4.93,0,0,0,.41-2.14C9.08,99.24,4.84,96,.12,94.4L0,94.59V90.26a28.84,28.84,0,0,1,30.45-.2,1.53,1.53,0,0,1,.3,2.36,18,18,0,0,1-5.32,4.24,17.3,17.3,0,0,1,9,9.3,1.48,1.48,0,0,1-.69,1.69c-.31.18-.63.35-1,.51,4,5,4.34,13.79,3,19.6a1.48,1.48,0,0,1-1.44,1.1l-.56-.07a36.26,36.26,0,0,1-4.81,14,1.53,1.53,0,0,1-2.06.54l-1-.49c-1.36,2-3.15,5.79-5.75,6.44s-5.31-1.08-7.59-2c-.29.59-.57,1.19-.81,1.82a1.54,1.54,0,0,1-2.2.9A46.63,46.63,0,0,1,.36,144.22Zm22.9-2.74-3.18-1.59c-.1.4-.19.8-.28,1.2a1.49,1.49,0,0,1-1.84,1c-.82-.32-1.6-.68-2.37-1.06A24.25,24.25,0,0,1,14,144.64c1.64.77,3.81,2,5.36,1.78C20.73,146.23,22.46,142.75,23.26,141.48Zm.26-21.1a22.2,22.2,0,0,0-2.79-9.6,1.47,1.47,0,0,1-.15-.43,18,18,0,0,1-9-2.81,8.2,8.2,0,0,1-.4.78,38.25,38.25,0,0,1-1,9.57l.24,0C14.79,118.81,19.1,119.89,23.52,120.38Zm7.33,8.05c-2.82-.4-5.63-.89-8.46-1.19a57.38,57.38,0,0,1-1.62,9.65l6.3,3.15A31.23,31.23,0,0,0,30.85,128.43Zm-1-19.12a25.8,25.8,0,0,1-6,1A23.82,23.82,0,0,1,26.52,122a1.51,1.51,0,0,1-1.5,1.5c-.89-.07-1.77-.17-2.65-.29,0,.34,0,.67,0,1,3.6.39,7.15,1.07,10.75,1.48C34.05,120.52,33.52,113.06,29.84,109.31Zm-9-10.77a35,35,0,0,1-9.31,1.33,9.19,9.19,0,0,1,.82,4.63,1.36,1.36,0,0,1,.47.23c4.57,3.43,12.94,3.37,18.28,1A13.22,13.22,0,0,0,20.8,98.54ZM9.48,96.87h.21A33,33,0,0,0,20,95.63l.19-.06a18.53,18.53,0,0,0,7.05-3.88,26,26,0,0,0-24.64.47A20,20,0,0,1,9.48,96.87Zm-4.16,31.2a29.68,29.68,0,0,0,12,10.53c1.25-5.23,2.73-10.4,2-15.81-3.25-.57-6.47-1.32-9.72-2l-.27-.09A24.64,24.64,0,0,1,5.32,128.07ZM1.74,141.49a43.19,43.19,0,0,0,7.89,5.16c1.13-2.33,2.59-4.52,3.28-7v0a32.93,32.93,0,0,1-8.26-7.42A39.6,39.6,0,0,1,1.74,141.49Z"/><path class="cls-3" d="M40.46,76.81c-5.55-2.49-10.41-7.65-9.55-14.1a1.52,1.52,0,0,1,2.43-.91c2.39,1.86,5.71,3.86,8.88,3.93,1.67-5.63,4.65-10.63,9.72-13.68-3.8-5.95-8.61-11.17-11.54-17.66a1.49,1.49,0,0,1,.52-1.75c8.89-5.9,22.17-7.8,32.46-5.16a1.52,1.52,0,0,1,1.23,1.73c-1.46,7.6-6.51,13.66-8.63,21A27,27,0,0,1,77.53,61.1c3.3-2.93,6.12-6.34,9.61-9.08a1.51,1.51,0,0,1,2.37,1.06c.8,6.49,9.19,41.27-6.51,34.56-2,12.46-10.08,22.28-21.74,27.42a1.26,1.26,0,0,1-1.42-.17h-.07c-11.83-2.59-18.53-18.8-19.23-29.72A72.1,72.1,0,0,1,40.46,76.81ZM78.27,94l-.21-.17C69.17,85.12,55.45,88,45.22,92.59l-.28.09c2.35,8.33,7.49,17.52,15.33,19.24a1.91,1.91,0,0,1,.36.13A33.87,33.87,0,0,0,78.27,94Zm2-7.81a1.37,1.37,0,0,1-.38-.58c-1.55-4.3-8.74-8.27-12.31-4.1a1.5,1.5,0,0,1-2.37-.06c-2.16-3.39-7.91-4.36-8.92.55a1.51,1.51,0,0,1-2.42.92c-3.74-3-7.09-1.2-9.09,2.64a1.48,1.48,0,0,1-1.06.79c.12,1.07.3,2.2.55,3.38,10.91-4.87,25.46-7.54,35.09,1.18A30.53,30.53,0,0,0,80.22,86.21ZM79,63.78A41.54,41.54,0,0,1,83.36,84.5c7.89,3.73,6.58-8.71,6-13.55-.53-5-1.7-9.88-2.49-14.82C84.21,58.6,81.78,61.36,79,63.78Zm-28.47-7c4-1.6,8.05-1.48,11.59,1.82a15.13,15.13,0,0,1,7.11-2.84,19.83,19.83,0,0,0-5.16-3.16,1.32,1.32,0,0,1-.82-.87,1.23,1.23,0,0,1-.44-1.37c1.87-7.18,6.7-13.13,8.52-20.3-8.86-1.81-19.83-.33-27.59,4.32,2.89,5.82,7.32,10.65,10.78,16.14a1.43,1.43,0,0,1,.23,1,1.63,1.63,0,0,1-.42,2.56A15.33,15.33,0,0,0,50.54,56.81ZM44.29,69.37c3.67-2,7.72-2.89,10.81-.1,2.71-4,8.29-3.65,11.86-.11,3.16-2.12,6.83-3.19,10.28-2a32.72,32.72,0,0,0-5.13-8.56,1.5,1.5,0,0,1-.68.08c-3.4-.32-6,1.07-8.57,3.08a1.53,1.53,0,0,1-2.1-.33c-4-4.58-8.69-2.69-13,.2a1.4,1.4,0,0,1-.93.26A30.45,30.45,0,0,0,44.29,69.37Zm-.95,12.86C46.05,78.72,50,77.31,54,79.48c2.4-4.7,8.88-5,12.53-1.08,4.13-3.08,10.27-1.29,13.82,2.51a41.83,41.83,0,0,0-1.74-9.85,1.45,1.45,0,0,1-.92-.29c-3.43-2.46-7.25-.59-10.07,1.6a1.51,1.51,0,0,1-2.1-.32c-2.07-2.74-7.23-4.72-8.62.19-.32,1.14-1.91,1.84-2.69.63-2.76-4.26-7.06-2-10.31.26l-.25.15A56.73,56.73,0,0,0,43.34,82.23ZM40.71,73.6a47.12,47.12,0,0,1,.77-4.9A17.94,17.94,0,0,1,34,65.9C34.7,69.29,37.58,72,40.71,73.6Z"/><path class="cls-3" d="M57.8,48.23c-1.43-4.19-2.84-8.39-4-12.67-.5-1.86-3.29-.76-2.8,1.09,1.14,4.28,2.55,8.47,4,12.66C55.63,51.14,58.42,50.05,57.8,48.23Z"/><path class="cls-3" d="M62,43.16c0-3.12,0-6.23.33-9.35.17-1.91-2.78-2.42-3-.49-.3,3.38-.36,6.76-.35,10.15C59,45.41,62,45.08,62,43.16Z"/><path class="cls-3" d="M69.52,101.26a4,4,0,0,1-5.32.64,5.21,5.21,0,0,1-2.45-4.26c0-2.35,1.81-3.6,3.94-4.09a1.15,1.15,0,0,1,.73.1,1.39,1.39,0,0,1,1.37-.1A4.8,4.8,0,0,1,69.52,101.26Zm-1.67-3.5A2,2,0,0,0,66.6,96.3a2.09,2.09,0,0,1-.6.24c-.17,0-.68.25-.65.23A1.85,1.85,0,0,0,65,97l0,0-.13.19,0,.13,0,.21a1.53,1.53,0,0,0,0,.3l0,.17c0,.1.3.63.15.38a2.19,2.19,0,0,0,.8.91,1.24,1.24,0,0,0,.71.31h.29c.34-.14.07,0,.37-.22A2.19,2.19,0,0,0,67.85,97.76Z"/><path class="cls-3" d="M260,278.4c-10.24,1.32-20.65,3.29-31,2.6a79.76,79.76,0,0,1-24.36-5.55c-12.73-5.08-29.19-14.14-29.14-29.84v-.07c-6.39-3-13.69-3.86-19.24-8.47-1.48-1.22.19-3.72,1.68-2.48,4.53,3.75,10.35,5.08,15.83,7.08-2.62-3.08-7-5-10.14-7.19a58.79,58.79,0,0,1-11.44-11.12,1.5,1.5,0,0,1,2.28-1.94,65.1,65.1,0,0,0,15,13.21,53.89,53.89,0,0,1,4.49,3.16c-4.09-6.69-9.55-12.52-13.71-19.21-1-1.64,1.7-2.92,2.71-1.29,4.59,7.39,10.74,13.69,14.92,21.29-.11-6.41-3.37-12.52-5.34-18.51-.6-1.81,2.1-3.13,2.7-1.29,2.31,7,6.15,14.11,5.58,21.65A9.21,9.21,0,0,1,190,240c3,1.44,4.81,4.55,6.71,7.09,3,4,7,6.74,11.11,9.43,16,10.46,32.72,17.49,51.94,18.95C261.47,275.56,261.71,278.18,260,278.4Zm-11.79-1.46a99.11,99.11,0,0,1-31.72-11.59c-6.31-3.65-14.12-7.6-19.18-12.94-2.43-2.57-4.07-5.94-6.69-8.32-4-3.65-8.21-2.17-11.39,1.54a1.54,1.54,0,0,1-.76.5c.21,14.9,18.27,23.55,30.33,27.68a73.42,73.42,0,0,0,23.41,4.3A124,124,0,0,0,248.19,276.94Z"/><path class="cls-3" d="M105.12,0h.95a6.9,6.9,0,0,1,2.51.77c4.25,2.2,4.21,9.24,4.73,13.86a1.83,1.83,0,0,1,.93.62c1,1.22,3.79,5.54,5.69,4.9a1.37,1.37,0,0,1,1.35.2A35.75,35.75,0,0,1,155,6.71c15.71,2.55,28.5,16.67,32.21,31.85,4.6,18.77-17.86,24.21-31.79,26.43-8.2,1.3-18.47,4.1-26.73,1.83-6.46-1.77-10.34-6.2-13.25-12.06a1.27,1.27,0,0,1-.11-.95c-5.6-5-11.49-11-18.75-11.23A1.53,1.53,0,0,1,95,41c-3,.39-6.08,2.26-9.16,1.63a8,8,0,0,1-4.92-3c-2.08-2.87-1.31-5.58,1.21-6.84-1.56-2.86-1.38-6.29,2.45-7.6,5-1.71,8.64,3.61,13,5a1.57,1.57,0,0,1,1.32-1,1.21,1.21,0,0,1,1.75-.36c4.06,2.62,7.89,2.66,11.75,1.84-2.54-2.53-4.5-5.7-4.69-8.72a2.32,2.32,0,0,1-.3-.26c-1.94-2.16-5.5-2.67-7.79-4.46a8.65,8.65,0,0,1-3.48-5c-.69-3.56,1.78-5.11,4.67-5.44C100.45,3.43,102.16.31,105.12,0ZM96.75,33.07a20,20,0,0,1-5.87-3.22c-1.4-1-3.19-2.2-5-1.86-2.77.51-1.66,3.11-.32,4.5a1.52,1.52,0,0,1-.86,2.64c-3.41.4-1.62,3.34.59,4.25,3.18,1.31,7-1.26,10.26-1.4C95.88,36.33,96.29,34.7,96.75,33.07Zm23.18-4.67c1.21-.37,2.43-.73,3.68-1,5-1.18,11-1.14,15.33,2.05,8,5.87,10.1,19,2.81,26.46-6.06,6.21-13.25,7-20.34,2.67a16,16,0,0,0,13,5.9c6.93-.1,14-1.31,20.85-2.47,7.79-1.32,17.15-2.91,23.7-7.72,6.13-4.51,7.08-11.33,4.48-18.2A49.47,49.47,0,0,0,174,20.61c-.76,3.22-1.78,6.33-4.44,8.56-1.48,1.25-3.17-1.23-1.7-2.47,2.47-2.08,3-5.63,3.64-8.62a33.9,33.9,0,0,0-9.83-6.5,30.74,30.74,0,0,1-1.17,12.36c-.57,1.83-3.52,1.28-2.95-.57a28.83,28.83,0,0,0,1-12.72v-.18a26.62,26.62,0,0,0-5.44-1,39.16,39.16,0,0,0-4.33,0c1,4.47,1.64,9.13.63,13.66-.41,1.89-3.36,1.32-2.94-.58.92-4.14.35-8.44-.61-12.52a1.77,1.77,0,0,1-.05-.32A32.44,32.44,0,0,0,119.93,28.4ZM100.18,32a77.84,77.84,0,0,0-1.92,7.8c6.38.91,11.47,5.4,16.23,9.54,5.25,4.56,13.25,12.54,20.77,8,5.18-3.16,8.59-8.64,7.85-14.88-.89-7.52-6.66-13.37-14.62-12.69C118.35,30.56,109.8,37.47,100.18,32Zm15.7-2.27.39-.12a1.4,1.4,0,0,1,.1-.44,34.08,34.08,0,0,1,2.95-6c-2.67-.18-5-2.93-6.7-5.12C107.94,21.27,112.38,26.79,115.88,29.69Zm-11.76-22a1.52,1.52,0,0,1-1.7,2c-6.52-.5-1.55,5,1.23,6.42a37.11,37.11,0,0,1,4.71,2.49A7.36,7.36,0,0,1,110.47,16c-.5-3-.68-6.08-1.41-9-.38-1.57-.87-3.7-2.88-4C103.2,2.59,103.43,5.82,104.12,7.68Z"/><path class="cls-3" d="M30.73,255.22c11.7,8.73,25.69,18,40.43,20.1C81,276.75,88,271.64,89.56,261.9c1.81-11-4.42-19.34-13.23-23.47C76,225.83,65.85,219.7,54.41,217c-4.91-10.82-12.91-19.9-23.47-23.42a1.36,1.36,0,0,0,.28-1.11C29.31,179.55,11.56,175.31,0,180.1v3.09a20.74,20.74,0,0,1,6-1.68c8.1-1.15,20.79,1.8,22.27,11.32a31.85,31.85,0,0,0-11.31-.53,1.5,1.5,0,0,0,.41,3c10.12-1.3,18.48,2.5,24.87,8.91-5.75-1.9-12.62-2.08-17.75.32-1.75.82-.22,3.4,1.52,2.59,5.76-2.7,14.54-1.23,19.82,2a1.4,1.4,0,0,0,.75.22,50.52,50.52,0,0,1,4.18,7,81.74,81.74,0,0,0-16.26-1.05c-1.94.07-1.5,3,.41,3,9.32-.31,23.77.88,32.06,7.39-6.14-.67-12.2-.55-17.81,2.58a1.5,1.5,0,0,0,1.51,2.59c5.87-3.28,12.43-2.78,18.85-1.85a1.48,1.48,0,0,0,.7-.05,15.49,15.49,0,0,1,3.13,8.36,31.6,31.6,0,0,0-14.69-1.39,1.5,1.5,0,0,0,.42,3c13.35-1.94,28.71,5.88,27.75,20.84-.46,7.06-4,12.42-11.31,12.92s-14.8-3-21.12-6.12a142.13,142.13,0,0,1-21.15-13.1c-10.94-8-19.47-17.66-27.35-28.67A98.56,98.56,0,0,1,0,215.36v6.07c1.48,2.23,2.92,4.26,4.17,6C11.8,238.09,20.23,247.39,30.73,255.22Z"/><path class="cls-3" d="M172.5,129.5c.49-4.69,5.22-10.65,10.1-11.45a1.62,1.62,0,0,1,.44,0c1-10.5,3.49-21.34,10.36-29.64,6.48-7.81,16.53-14.32,26.88-14.91S241.54,77,248.49,84.92c7.76,8.85,10,19.63,8.57,31.06l.13.2a1.23,1.23,0,0,1,1.21-.13c5.31,2,10.3,5.32,14.86,8.65a1.53,1.53,0,0,1,0,2.6c-4.42,2.56-8.69,1.47-13.27,2.34,5.22,4.36,3.74,9.76-.95,13.33,2.19,19.43-22.7,19.68-36.48,19.55-8.5-.07-18.78.84-27-1.92-5.95-2-8.92-6.06-9.93-12a23.36,23.36,0,0,1-2.44-1.11c-6.85-3.75-5.72-9.65-1.08-14.77a17.11,17.11,0,0,0,0-2.48A29.48,29.48,0,0,1,174,131C173.25,130.94,172.41,130.36,172.5,129.5Zm83.72,15.2c-.44.22-.9.43-1.37.62-5.71,2.27-12.44,2.58-18.52,3.23-7.42.79-14.85,1.35-22.31,1.63-7.62.29-17.07,1.51-25.08-.49,1.75,6.44,7.25,8.65,14,9.14,6.51.48,13.08.68,19.61.69C233.6,159.54,256.93,160.39,256.22,144.7Zm1-13.4a1.85,1.85,0,0,1-.32-.3c-1.76,1.65-3.16,4.55-5.42,4.5a2.82,2.82,0,0,1-2.19-.87c-1.47-1.5-1.1-1.25-2.63,0-2,1.67-3.56,1.41-5.93.51-1.83-.7-3.53-2-5.56-1.4-1.79.57-3.53,1.37-5.34,1.87-2,.56-5.68-1-6.85.43-3.16,3.9-7.58,1.59-10.27-1.48-4.17,3.12-9.12,6.12-11.49.86a7.22,7.22,0,0,1-4.11,1.53c-1.69,0-2.94-1.64-4.53-2a1.41,1.41,0,0,1-.64-.35c-1.05-.38-2.39-.49-3.47-.93a18.12,18.12,0,0,1-4.59,1.78h-.13c-11.5,13.63,22.22,12,28.4,11.79,9.31-.35,18.62-.95,27.86-2.14,4.76-.6,10.51-.71,14.82-3.08C259.5,139.47,263.24,135.35,257.24,131.3ZM186.1,117.54a1.52,1.52,0,0,1,.66.16c10.35,5.13,23.27,5.82,34.62,5.55,10.74-.25,23.16-1.13,32.66-6.81a2,2,0,0,1,0-.34c1.2-8.53.12-17.39-4.3-24.61-1,1.27-2.05,2.45-3,3.77-1.08,1.58-3.68.08-2.58-1.52s2.42-2.93,3.5-4.5a1.63,1.63,0,0,1,.27-.31,28.78,28.78,0,0,0-3.4-3.7,34.45,34.45,0,0,0-18.09-8.64c0,1.82-.46,3.59-.49,5.41s-3,1.94-3,0,.47-3.65.5-5.5l0-.16a25.16,25.16,0,0,0-5.33.41A35.56,35.56,0,0,0,205,81.94c1.79.18,3.59.33,5.37.61s1.09,3.19-.8,2.9c-2.65-.42-5.34-.55-8-.94a39.12,39.12,0,0,0-8.32,10,19.7,19.7,0,0,1,3.78,2.93c1.38,1.36-.74,3.48-2.12,2.12a16.73,16.73,0,0,0-3.11-2.42A58.59,58.59,0,0,0,186.1,117.54Zm-10.25,10.51a45.13,45.13,0,0,0,7.25-1,1.53,1.53,0,0,1,1.9,1.45c.06,1.18.14,2.3.13,3.42.89-.36,1.76-.79,2.61-1.22a1.55,1.55,0,0,1,2,.54c-.9-1.2,1.43,0,2.31.29a11.88,11.88,0,0,1,1.76.63l0,0c3,.88,3.49,2.52,7-.25a1.53,1.53,0,0,1,2.51.66c1.41,5.73,6.21.59,8.79-1.4a1.51,1.51,0,0,1,2,.54c.71,1,4.17,5.18,6,2.92.4-.48,1.26-1.93,2-2.23,2.28-1,4,1.09,6,.54,5.1-1.42,7.56-3.16,12.6-1,2.57,1.09,3.45.8,5.27-1A3.11,3.11,0,0,1,248,130c2.78,0,2.68,3.84,5.39.11,3.68-5.07,10.59-2.88,16.07-4.45A53.85,53.85,0,0,0,257.6,119a1.6,1.6,0,0,1-.81-.69l0,0c-10,6.59-23.73,7.8-35.38,8-11.95.15-25.23-.55-36.14-6a1.47,1.47,0,0,1-.5-.4,2.66,2.66,0,0,1-.28,0,1.18,1.18,0,0,1-1.06,1C180.43,121.43,177,124.93,175.85,128.05Z"/><path class="cls-3" d="M199.21,110.76c.89,1.71,3.48.2,2.58-1.52a33.8,33.8,0,0,1-2.34-4.14c-.65-1.81-3.55-1-2.9.8A40.88,40.88,0,0,0,199.21,110.76Z"/><path class="cls-3" d="M207.29,96.74A9,9,0,0,1,206,92c0-1.93-3-1.94-3,0a11.89,11.89,0,0,0,1.71,6.26C205.74,99.89,208.33,98.38,207.29,96.74Z"/><path class="cls-3" d="M212.79,106.26c.65-1.17,2.3-2.18,3.47-3,1.59-1.08.09-3.68-1.52-2.6s-3.58,2.31-4.53,4S211.86,108,212.79,106.26Z"/><path class="cls-3" d="M217.05,92.4a1.51,1.51,0,0,0,2.9-.8,18.15,18.15,0,0,0-2.66-5.36c-1.06-1.6-3.66-.1-2.58,1.52A16,16,0,0,1,217.05,92.4Z"/><path class="cls-3" d="M226,104c0,1,3,1,3,0a16.9,16.9,0,0,0-.55-5.15,1.52,1.52,0,0,0-2.9.92A12.35,12.35,0,0,1,226,104Z"/><path class="cls-3" d="M231,91a16.83,16.83,0,0,0,4.9-1c1.82-.61,1-3.51-.8-2.9a13.9,13.9,0,0,1-4.1,1C229.07,88,229.06,91,231,91Z"/><path class="cls-3" d="M237.74,103.3c1.63,1.06,3.38,1.93,5,3s3.13-1.54,1.52-2.6-3.38-1.93-5-3S236.13,102.24,237.74,103.3Z"/><path class="cls-3" d="M188.7,0h3.76a23.12,23.12,0,0,0,2.39,1.11l.14.06a10.69,10.69,0,0,0,1.89.6,6.19,6.19,0,0,1,2.27.58c4.39,2.44,1.94,7.46-.77,10s-3.83,5.66-1.55,7.87c.9-1.77,2.3-3.31,4.37-3.43a8.1,8.1,0,0,1,6.26,2.8c2.93,3,5,9.34-.63,10.59,1.63,5.17,1.4,11.12,3.29,16.21,15.55-1.66,26.44-12.54,35-24.76-8.41-6.05-15.93-13.2-23.61-20.16A1.24,1.24,0,0,1,221,2.76a10.47,10.47,0,0,1-13.48-.65A9.56,9.56,0,0,1,205.81,0h3.77c.11.09.21.19.33.28A7.5,7.5,0,0,0,219,.46a1.51,1.51,0,0,1,1-.28l-.2-.18h4.28c7.39,6.67,14.71,13.45,22.8,19.26a1.52,1.52,0,0,1,.48.58,1.73,1.73,0,0,1,.7.33c4.44-.36,6.12,3.3,7.45,7.47,1.44,4.49-.62,9-3.85,12.19-10.29,10-23.38,14-37,16.92a1.35,1.35,0,0,1-.48,1.44c-2.5,2.07-5.72,2.32-8.22.11a8.76,8.76,0,0,1-2.6-4.24,1.18,1.18,0,0,1-.89-.86c-3.07-9.2-3.39-18.94-4.93-28.46a1.71,1.71,0,0,1-1.63-1.1,6.84,6.84,0,0,1-2.72-2.59,7.81,7.81,0,0,1,1.66-9.43,1.72,1.72,0,0,1-.09-.52,18.49,18.49,0,0,0-1.35-6.84,4.55,4.55,0,0,1-1.88-1.07A14.2,14.2,0,0,1,188.7,0Zm23.36,49.21a14.34,14.34,0,0,1,2.06,4.6C222.71,52,231.4,50.06,239,45.53c4.11-2.43,9.4-5.54,12.14-9.65,1.9-2.86,2.8-13.75-3.5-12.62C238.93,35.78,227.68,47,212.06,49.21Zm-5.93,2.42c-.23,3.17,2.65,6.4,5.57,4.68a1.43,1.43,0,0,1-.19-.49,11.63,11.63,0,0,0-2.35-5.47C207.89,48.94,206.26,49.82,206.13,51.63ZM202.8,28.29a6.66,6.66,0,0,0-2-2.05c1.07,7.44,1.5,15.05,3.39,22.33a5.2,5.2,0,0,1,2.82-2C205.22,40.63,206,33.62,202.8,28.29Zm-3.44-6.44A12.91,12.91,0,0,1,204.17,25a14.57,14.57,0,0,1,1.55,2.42,1.52,1.52,0,0,1,.41-.14c1.32-.26,1.56-.91,1.27-2.12a8.22,8.22,0,0,0-2.4-3.8c-.86-.82-2.28-1.8-3.49-1.59A3.07,3.07,0,0,0,199.36,21.85Zm-2.55-17A21.47,21.47,0,0,1,197.63,9a7,7,0,0,0,.56-.82C199.51,5.63,198.22,5,196.81,4.8Z"/><path class="cls-3" d="M216.47,22.77a8.44,8.44,0,0,1,5.81-8.65c4.55-1.53,8.51,1.19,10.88,4.93a1.24,1.24,0,0,1,.21.91c.92,4.54-1.22,10.82-6.63,11.23C222.13,31.53,216.79,27.64,216.47,22.77Zm2.94-.94c0,3.12,3.57,7,6.83,6.4,3.74-.63,4.85-4.5,4.17-7.8l0-.19c-1.52-2.33-4.31-4.44-7.23-3.27A5.52,5.52,0,0,0,219.41,21.83Z"/><path class="cls-3" d="M21.66,49c4.46-6.29,5.44-13.77,7.82-20.92a15.56,15.56,0,0,1,1-2.42,1.16,1.16,0,0,0,.89-1.37l0-.14c3.2-5,8.41-7.79,12.31-12.35a1.59,1.59,0,0,0,1.51-2.27c-.3-.61-.6-1.22-.89-1.83a1.51,1.51,0,0,0,.85-.12C51.32,4.93,63.08,10,67.46,3a4.9,4.9,0,0,0,.88-3h-3a2,2,0,0,1,0,.69c-.47,2.68-5.53,3-7.43,3.09C52.68,4,48.61,2.85,43.63,5a1.78,1.78,0,0,0-.43.28A32.3,32.3,0,0,1,42,1.92,18.83,18.83,0,0,0,45.52,0H33.13a20.49,20.49,0,0,1-9.7,0H13.67C21.31,2.61,31.76,5.8,38.6.53a35.57,35.57,0,0,0,3.19,8.86c-3.25,4.13-8,6.74-11.42,10.72-1.2-3.49-3.12-6.67-4.69-10.09-.8-1.76-3.39-.23-2.59,1.51,1.77,3.84,4.23,7.48,5.09,11.65-1.85,3.32-2.8,7.24-3.71,11C22.94,23,17.22,12.3,8.14,5.48,6.6,4.32,5.1,6.93,6.63,8.07c10.11,7.59,15.53,20.74,15.26,33.21a1.38,1.38,0,0,0,.25.87,30,30,0,0,1-6.73,9.92c2.5-10.64-1.92-22.49-8.23-31C6.05,19.48,3.44,21,4.59,22.53c6.59,9,11.6,22.26,6.5,33l-.08.22a38.61,38.61,0,0,1-9.44,4.83c3.22-4.85,2.19-11.91,1-17.18A64.61,64.61,0,0,0,0,34.74V45.15A25,25,0,0,1,.13,56.37c0,.15-.09.27-.13.42V64.2A39.05,39.05,0,0,0,21.66,49Z"/><path class="cls-3" d="M299.27,90.73c.24-.17.49-.31.73-.47v4.33c-.67,1-1.33,2-2,3.08-1,3.52.34,7.64,2,11.29v6.5a1.16,1.16,0,0,1-.27-.34c-.39-.74-.79-1.52-1.18-2.32a23.41,23.41,0,0,1-3.39,6.89,33,33,0,0,0,4.84,9v3.83a1.48,1.48,0,0,1-1-.42,32.45,32.45,0,0,1-5.91-9.65,63.53,63.53,0,0,1-4.59,4.83v0c1.27,6.31,5.35,10.51,9.58,14.91a34.85,34.85,0,0,0,1.95-4.28v6.93l-.35.6a1.5,1.5,0,0,1-2.35.3c-4.7-4.95-9.48-9.48-11.34-16.1-.52.48-1,1-1.54,1.44a1.52,1.52,0,0,1-2.36-.31c-2.86-6.22-3.13-12.48-2.24-19.15a17.14,17.14,0,0,1-3.2-.82,1.56,1.56,0,0,1-1-1.85c1.65-9.62,13.08-16.61,22-18a1.53,1.53,0,0,1,1.19.3A1.61,1.61,0,0,1,299.27,90.73Zm-4.08,5.92a10.9,10.9,0,0,1,1-2.37c-7.14,1.81-15.29,6.93-17.39,14C287.23,110.47,291.28,103.23,295.19,96.65Zm1.2,11.79a29.12,29.12,0,0,1-1.87-5.91c-3.16,4.72-6.52,8.77-12.52,9.21v0c0,5.39-.35,10.64,1.51,15.71,5.35-4.92,11.89-10.67,12.55-18.11A1.46,1.46,0,0,1,296.39,108.44Z"/><path class="cls-3" d="M292.87,185.32c-7.93,10.32.06,25.48,7.13,36.11v-6.07c-6.36-11.48-11.57-26.75,0-32.17V180.1A17,17,0,0,0,292.87,185.32Z"/><path class="cls-3" d="M262.93,32.59c2.82,12.27,9.62,27.92,22.35,32.64a15,15,0,0,0,9.89.06A47.69,47.69,0,0,0,300,64.2V56.79a8.46,8.46,0,0,1-5.91,5.66q-1.35.21-2.7.33a1.51,1.51,0,0,0-.66.2,14.21,14.21,0,0,1-4.65-.64c-11.42-3.65-17.32-19.21-20-29.58-2.38-9.13-4.8-25.83,5.07-31.68,6.58,5.18,12.75,10.05,17.31,17.19a94.74,94.74,0,0,1,9.06,18.54,60.72,60.72,0,0,1,2.5,8.34V34.74a104,104,0,0,0-7.07-14.83c-4.7-8.3-11.06-14.08-18.37-19.91h-7.05C258.83,7.38,260.67,22.81,262.93,32.59Z"/><path class="cls-3" d="M287.19,42.53c-3.42,4.35-7.92,1.72-9.91-2.44-1.76-3.68-3.25-8.65-2.26-12.85a1.41,1.41,0,0,1,.31-1.52l.33-.33a1.25,1.25,0,0,1,.73-.61C283.46,19.65,291.74,36.73,287.19,42.53Zm-9.11-15.21c-1.14,3.82,2.84,18.37,6.75,13.4C287.48,37.34,282.07,24.89,278.08,27.32Z"/><path class="cls-3" d="M194.85,278.58c-3.89,2.41-7.68.72-9.31,5.85-1.07,3.37,2.72,3.83,4.92,4.6,1.15.41,4.43,2.83,2.24,3.55-1.71.55-2.36,1.62-2.95,3.23-.37,1-1.75,2-1.45,3.21a4.2,4.2,0,0,0,.4,1h3.76c-.77-.43-1.3-.82-1.16-1,.44-.71.87-1.35,1.25-2.09.9-1.74,2.58-1.77,3.94-2.87,3.8-3.05-2.24-6.33-4.23-7.38a12.17,12.17,0,0,0-3-1.05c-2.34-.54,1.55-2.67,2.67-2.93a36.2,36.2,0,0,0,3.58-.94c1-.35,5.17,3.1,6.08,3.7,2,1.29,3.86,2.66,5.73,4.07l-.07.06c-2.72,3.13-3.33,7.14-1.4,10.47h3.77c-2.84-2.41-2.21-6.08,0-8.7,3.51,2.77,6.88,5.71,10.21,8.7h4.28c-8.69-7.83-17.49-15.52-27.77-21.29A1.47,1.47,0,0,0,194.85,278.58Z"/><path class="cls-3" d="M270.33,298.22l-.07.07a1.43,1.43,0,0,0-.63.19,15.88,15.88,0,0,0-2.12,1.52h7.05l-.79-.63c7.74-5.37,17.17-5.29,26.23-3.37v-3.14C289.74,290.84,278.78,291.49,270.33,298.22Z"/><path class="cls-3" d="M61.78,294.66c1.25-4.1,2.61-7.88,1.55-12.28a1.5,1.5,0,0,0-1.84-1.05c-9.06,2.79-11.68,13.88-20.14,17.63l0-.08a1.17,1.17,0,0,0-1.06-1.08,1.47,1.47,0,0,0-2.44-.58,10.76,10.76,0,0,1-4.7,2.78H45.52a29.89,29.89,0,0,0,6.06-5.75c2.72-3.26,5.22-7.44,9.12-9.38.29,3.64-1.26,7-2.26,10.51a1.5,1.5,0,0,0,1.05,1.84c1.47.26,5.4.76,5.81,2.78h3C68.13,297.22,64.78,295.47,61.78,294.66Z"/><path class="cls-3" d="M0,292.86V296a103.84,103.84,0,0,1,12.32,3.54l1.35.46h9.75c-7-1.4-14.53-4.94-19.67-6.29C2.52,293.39,1.26,293.11,0,292.86Z"/><path class="cls-3" d="M262.32,216.21c-2.83,11.26-14.5,17.72-25.49,13.36-16.7-6.61-15.25-35.74,3.5-37C253.11,189.5,265.45,203.8,262.32,216.21Zm-4.89-12.87c-3.16-4.62-8.94-8.33-14.62-8.06a1.36,1.36,0,0,1-.81.22c-.38,0-.76,0-1.12,0a11.27,11.27,0,0,0-1.48.42,1.26,1.26,0,0,1-1.07,0c-12.57,3.06-13.74,23.16-2.47,29.82,8.27,4.89,20,1.23,23-8.27C260.3,212.83,260.26,207.47,257.43,203.34Z"/><path class="cls-3" d="M242.4,217.55c-6.29-1.23-5.21-10.34-1.84-14,1.31-1.42-.81-3.54-2.12-2.12-4.82,5.22-5.52,17.3,3.16,19C243.49,220.82,244.3,217.93,242.4,217.55Z"/><path class="cls-3" d="M272.43,183.27c7.2,9,9.82,21.81,8.41,33.11-1.16,9.3-4.76,21.44-11.86,28.12a17.08,17.08,0,0,1-13.28,4.85c-3.19-.26-6.42-1.06-9.61-1-3.67.09-6.73,1.26-10.08,2.57-5,2-10,3.74-15.29,1.71-4.47-1.72-7.13-6.57-9-10.67-2.94-6.52-4.89-11.95-10.07-17.11-3.62-3.6-7.1-7.34-9.19-12.06-4.28-9.66,2.83-20.35,9.87-26.63a52.66,52.66,0,0,1,27.57-12.75A1.35,1.35,0,0,1,231,173l2.11,0,.39,0a1.45,1.45,0,0,1,.57.06c3.79.05,7.58,0,11.37.23C254.92,173.77,266.06,175.34,272.43,183.27Zm4.79,17.95c-2.38-10.78-7.81-20.28-19.11-23.19-8.2-2.11-16.66-1.82-25.06-2-11.37,1.08-22.92,5.79-30.71,14.36-3.77,4.15-8.33,9.92-8.17,15.89.14,5.24,3,9.51,6.5,13.24s7.55,7,9.8,11.69c2,4.25,3.24,9.05,5.77,13,8.39,13.23,18.74.57,29.85,1.1,5.87.27,12.93,2.71,18.24-.94,4-2.73,6.45-7,8.43-11.27C277.35,223.13,279.63,212.19,277.22,201.22Z"/><path class="cls-3" d="M155.58,159.9c6.68.41,13.11,2.14,17.58,7.55,5.38,6.51,8.29,16.26,5.18,24.47-6.47,17.1-28.5,22.58-44.46,16.55C119,202.83,104.35,189.3,107,172c2.27-15,18.83-21.62,31.09-14.9a27.8,27.8,0,0,1-3.28-8.91,1.52,1.52,0,0,1,1.5-1.84c3.71,0,5.77,2.26,8.09,4.61a73,73,0,0,1,3.26-7.75,1.51,1.51,0,0,1,2.59.09,25.06,25.06,0,0,1,1.55,8.45,28.26,28.26,0,0,1,8.86-1.87,1.51,1.51,0,0,1,1.47,1.54C162,155.79,159,158,155.58,159.9Zm-17.35-10.22a28.08,28.08,0,0,0,5.29,10.1,3.31,3.31,0,0,1,.18.29c1.89-.09,3.84-.19,5.82-.24,3.12-1.86,8-3.28,9.27-6.85a27.17,27.17,0,0,0-7.63,2.17,1.53,1.53,0,0,1-2.21-1.36c-.17-1.79-.19-3.59-.41-5.36-.74,1.84-1.41,3.72-2.15,5.57a1.52,1.52,0,0,1-2.53.58C142,152.92,140.52,150.59,138.23,149.68Zm12.14,13.1a1.2,1.2,0,0,1-.93,0c-2.58.08-5.16.25-7.67.36a1.24,1.24,0,0,1-1.28-.76,1.36,1.36,0,0,1-.32-.23c-5.7-5.25-14.88-6.56-21.7-2.59-6.45,3.74-9.56,11.14-8.79,18.49,1.41,13.52,13.86,24,26.2,27.92,13.43,4.27,34.85.8,39.59-14.94,2.29-7.58.55-17-5.42-22.53C164.56,163.41,157.49,162.64,150.37,162.78Z"/><path class="cls-3" d="M125.78,163c-8.58,6.79-10.9,19.53-3,27.72,1.35,1.39,3.55-.65,2.2-2-6.88-7.09-4.51-17.7,2.79-23.48C129.34,164,127.28,161.8,125.78,163Z"/></pattern></defs><rect class="cls-4" width="2589" height="1524"/></svg>